<svg width="61" height="18" viewBox="0 0 61 18" fill="none" xmlns="http://www.w3.org/2000/svg">
<path d="M0 17.376V0.623999H3.648V14.136H10.032V17.376H0Z" fill="#212529"/>
<path d="M18.4856 17.664C17.3816 17.664 16.3736 17.48 15.4616 17.112C14.5496 16.744 13.7736 16.2 13.1336 15.48C12.4936 14.744 11.9976 13.84 11.6456 12.768C11.2936 11.68 11.1176 10.424 11.1176 9C11.1176 7.576 11.2936 6.328 11.6456 5.256C11.9976 4.168 12.4936 3.264 13.1336 2.544C13.7736 1.808 14.5496 1.256 15.4616 0.887999C16.3736 0.519999 17.3816 0.335999 18.4856 0.335999C19.5896 0.335999 20.5976 0.519999 21.5096 0.887999C22.4216 1.256 23.1976 1.808 23.8376 2.544C24.4776 3.264 24.9736 4.168 25.3256 5.256C25.6776 6.328 25.8536 7.576 25.8536 9C25.8536 10.424 25.6776 11.68 25.3256 12.768C24.9736 13.84 24.4776 14.744 23.8376 15.48C23.1976 16.2 22.4216 16.744 21.5096 17.112C20.5976 17.48 19.5896 17.664 18.4856 17.664ZM18.4856 14.424C19.5896 14.424 20.4456 14.064 21.0536 13.344C21.6776 12.624 21.9896 11.592 21.9896 10.248V7.752C21.9896 6.408 21.6776 5.376 21.0536 4.656C20.4456 3.936 19.5896 3.576 18.4856 3.576C17.3816 3.576 16.5176 3.936 15.8936 4.656C15.2856 5.376 14.9816 6.408 14.9816 7.752V10.248C14.9816 11.592 15.2856 12.624 15.8936 13.344C16.5176 14.064 17.3816 14.424 18.4856 14.424Z" fill="#212529"/>
<path d="M39.5304 14.712H39.4104C39.2824 15.56 38.8504 16.264 38.1144 16.824C37.3784 17.384 36.3784 17.664 35.1144 17.664C34.1544 17.664 33.2584 17.48 32.4264 17.112C31.5944 16.744 30.8664 16.2 30.2424 15.48C29.6184 14.76 29.1304 13.864 28.7784 12.792C28.4264 11.72 28.2504 10.48 28.2504 9.072C28.2504 7.664 28.4344 6.416 28.8024 5.328C29.1704 4.24 29.6824 3.328 30.3384 2.592C31.0104 1.856 31.8104 1.296 32.7384 0.911998C33.6664 0.527998 34.6984 0.335999 35.8344 0.335999C37.3384 0.335999 38.6344 0.663999 39.7224 1.32C40.8104 1.96 41.6664 2.928 42.2904 4.224L39.3144 5.928C39.0584 5.272 38.6584 4.72 38.1144 4.272C37.5704 3.808 36.8104 3.576 35.8344 3.576C34.6984 3.576 33.7944 3.904 33.1224 4.56C32.4504 5.216 32.1144 6.248 32.1144 7.656V10.344C32.1144 11.736 32.4504 12.768 33.1224 13.44C33.7944 14.096 34.6984 14.424 35.8344 14.424C36.2824 14.424 36.7064 14.376 37.1064 14.28C37.5064 14.168 37.8584 14.008 38.1624 13.8C38.4664 13.576 38.6984 13.312 38.8584 13.008C39.0344 12.704 39.1224 12.344 39.1224 11.928V11.088H36.0024V8.04H42.6024V17.376H39.5304V14.712Z" fill="#212529"/>
<path d="M52.8684 17.664C51.7644 17.664 50.7564 17.48 49.8444 17.112C48.9324 16.744 48.1564 16.2 47.5164 15.48C46.8764 14.744 46.3804 13.84 46.0284 12.768C45.6764 11.68 45.5004 10.424 45.5004 9C45.5004 7.576 45.6764 6.328 46.0284 5.256C46.3804 4.168 46.8764 3.264 47.5164 2.544C48.1564 1.808 48.9324 1.256 49.8444 0.887999C50.7564 0.519999 51.7644 0.335999 52.8684 0.335999C53.9724 0.335999 54.9804 0.519999 55.8924 0.887999C56.8044 1.256 57.5804 1.808 58.2204 2.544C58.8604 3.264 59.3564 4.168 59.7084 5.256C60.0604 6.328 60.2364 7.576 60.2364 9C60.2364 10.424 60.0604 11.68 59.7084 12.768C59.3564 13.84 58.8604 14.744 58.2204 15.48C57.5804 16.2 56.8044 16.744 55.8924 17.112C54.9804 17.48 53.9724 17.664 52.8684 17.664ZM52.8684 14.424C53.9724 14.424 54.8284 14.064 55.4364 13.344C56.0604 12.624 56.3724 11.592 56.3724 10.248V7.752C56.3724 6.408 56.0604 5.376 55.4364 4.656C54.8284 3.936 53.9724 3.576 52.8684 3.576C51.7644 3.576 50.9004 3.936 50.2764 4.656C49.6684 5.376 49.3644 6.408 49.3644 7.752V10.248C49.3644 11.592 49.6684 12.624 50.2764 13.344C50.9004 14.064 51.7644 14.424 52.8684 14.424Z" fill="#212529"/>
</svg>
