<svg width="95" height="20" viewBox="0 0 95 20" fill="none" xmlns="http://www.w3.org/2000/svg">
<g id="Tech Blog">
<path d="M0 3.33098V0.795471H11.946V3.33098H7.4929V15.3409H4.45312V3.33098H0Z" fill="#364FC7"/>
<path d="M17.2461 15.554C16.1239 15.554 15.158 15.3267 14.3484 14.8722C13.5434 14.4129 12.9232 13.7642 12.4876 12.9262C12.052 12.0834 11.8342 11.0867 11.8342 9.9361C11.8342 8.81394 12.052 7.82909 12.4876 6.98155C12.9232 6.13401 13.5363 5.4735 14.3271 5.00002C15.1225 4.52653 16.0553 4.28979 17.1254 4.28979C17.8451 4.28979 18.515 4.40579 19.1353 4.6378C19.7603 4.86507 20.3048 5.20835 20.7688 5.66763C21.2376 6.12691 21.6022 6.70456 21.8626 7.40059C22.123 8.09187 22.2532 8.90153 22.2532 9.82956V10.6605H13.0415V8.78553H19.4052C19.4052 8.34992 19.3105 7.96403 19.1211 7.62786C18.9317 7.29168 18.6689 7.0289 18.3327 6.83951C18.0013 6.64538 17.6154 6.54831 17.1751 6.54831C16.7158 6.54831 16.3086 6.65485 15.9535 6.86791C15.6031 7.07625 15.3285 7.35797 15.1296 7.71309C14.9308 8.06346 14.829 8.45409 14.8242 8.88496V10.6676C14.8242 11.2074 14.9237 11.6738 15.1225 12.0668C15.3261 12.4598 15.6126 12.7628 15.9819 12.9759C16.3512 13.1889 16.7892 13.2955 17.2958 13.2955C17.632 13.2955 17.9397 13.2481 18.2191 13.1534C18.4985 13.0587 18.7376 12.9167 18.9364 12.7273C19.1353 12.5379 19.2868 12.3059 19.391 12.0313L22.1893 12.2159C22.0472 12.8883 21.756 13.4754 21.3157 13.9773C20.8801 14.4744 20.3166 14.8627 19.6254 15.1421C18.9388 15.4167 18.1457 15.554 17.2461 15.554Z" fill="#364FC7"/>
<path d="M29.1566 15.554C28.0392 15.554 27.078 15.3173 26.2731 14.8438C25.4729 14.3655 24.8574 13.7027 24.4265 12.8551C24.0004 12.0076 23.7873 11.0322 23.7873 9.92899C23.7873 8.81157 24.0027 7.83146 24.4336 6.98865C24.8692 6.14112 25.4871 5.4806 26.2873 5.00712C27.0875 4.5289 28.0392 4.28979 29.1424 4.28979C30.0941 4.28979 30.9274 4.46261 31.6424 4.80826C32.3574 5.1539 32.9232 5.63922 33.3398 6.26422C33.7565 6.88922 33.9861 7.62312 34.0288 8.46593H31.1737C31.0932 7.92142 30.8801 7.48344 30.5344 7.15201C30.1935 6.81583 29.7461 6.64774 29.1921 6.64774C28.7234 6.64774 28.3138 6.77559 27.9634 7.03127C27.6178 7.28221 27.3479 7.64916 27.1538 8.13212C26.9596 8.61507 26.8626 9.19983 26.8626 9.88638C26.8626 10.5824 26.9573 11.1743 27.1467 11.6619C27.3408 12.1496 27.613 12.5213 27.9634 12.777C28.3138 13.0327 28.7234 13.1605 29.1921 13.1605C29.5378 13.1605 29.8479 13.0895 30.1225 12.9475C30.4019 12.8054 30.6315 12.5994 30.8114 12.3296C30.9961 12.0549 31.1168 11.7259 31.1737 11.3423H34.0288C33.9814 12.1757 33.7541 12.9096 33.3469 13.5441C32.9445 14.1738 32.3881 14.6662 31.6779 15.0213C30.9677 15.3764 30.1272 15.554 29.1566 15.554Z" fill="#364FC7"/>
<path d="M38.9915 9.03411V15.3409H35.9659V0.795471H38.9062V6.35655H39.0341C39.2803 5.71261 39.678 5.20835 40.2273 4.84377C40.7765 4.47445 41.4654 4.28979 42.294 4.28979C43.0516 4.28979 43.7121 4.45551 44.2756 4.78695C44.8438 5.11365 45.2841 5.58477 45.5966 6.2003C45.9138 6.8111 46.0701 7.54263 46.0653 8.3949V15.3409H43.0398V8.93468C43.0445 8.26233 42.8741 7.73913 42.5284 7.36507C42.1875 6.99102 41.7093 6.80399 41.0938 6.80399C40.6818 6.80399 40.3172 6.89159 40 7.06678C39.6875 7.24197 39.4413 7.49765 39.2614 7.83382C39.0862 8.16526 38.9962 8.56536 38.9915 9.03411Z" fill="#364FC7"/>
<path d="M53.1321 15.3409V0.795471H58.956C60.026 0.795471 60.9186 0.954089 61.6335 1.27132C62.3485 1.58856 62.8859 2.0289 63.2457 2.59235C63.6056 3.15106 63.7855 3.795 63.7855 4.52416C63.7855 5.09235 63.6719 5.59187 63.4446 6.02274C63.2173 6.44888 62.9048 6.79926 62.5071 7.07388C62.1141 7.34377 61.6643 7.53553 61.1577 7.64916V7.79121C61.7116 7.81488 62.2301 7.97113 62.7131 8.25996C63.2008 8.54879 63.5961 8.95362 63.8991 9.47445C64.2022 9.99055 64.3537 10.6061 64.3537 11.321C64.3537 12.0928 64.1619 12.7817 63.7784 13.3878C63.3996 13.9891 62.8385 14.465 62.0952 14.8154C61.3518 15.1657 60.4356 15.3409 59.3466 15.3409H53.1321ZM56.2074 12.8267H58.7145C59.5715 12.8267 60.1965 12.6634 60.5895 12.3367C60.9825 12.0052 61.179 11.5649 61.179 11.0156C61.179 10.6132 61.0819 10.2581 60.8878 9.9503C60.6937 9.64254 60.4167 9.40106 60.0568 9.22587C59.7017 9.05068 59.2779 8.96309 58.7855 8.96309H56.2074V12.8267ZM56.2074 6.88212H58.4872C58.9086 6.88212 59.2827 6.80873 59.6094 6.66195C59.9408 6.51043 60.2012 6.29737 60.3906 6.02274C60.5848 5.74812 60.6818 5.41905 60.6818 5.03553C60.6818 4.50996 60.4948 4.08619 60.1207 3.76422C59.7514 3.44225 59.2258 3.28127 58.544 3.28127H56.2074V6.88212Z" fill="#364FC7"/>
<path d="M69.3235 0.795471V15.3409H66.2979V0.795471H69.3235Z" fill="#364FC7"/>
<path d="M76.6761 15.554C75.5729 15.554 74.6188 15.3196 73.8139 14.8509C73.0137 14.3774 72.3958 13.7192 71.9602 12.8764C71.5246 12.0289 71.3068 11.0464 71.3068 9.92899C71.3068 8.8021 71.5246 7.81725 71.9602 6.97445C72.3958 6.12691 73.0137 5.46877 73.8139 5.00002C74.6188 4.52653 75.5729 4.28979 76.6761 4.28979C77.7794 4.28979 78.7311 4.52653 79.5312 5.00002C80.3362 5.46877 80.9564 6.12691 81.392 6.97445C81.8277 7.81725 82.0455 8.8021 82.0455 9.92899C82.0455 11.0464 81.8277 12.0289 81.392 12.8764C80.9564 13.7192 80.3362 14.3774 79.5312 14.8509C78.7311 15.3196 77.7794 15.554 76.6761 15.554ZM76.6903 13.2102C77.1922 13.2102 77.6113 13.0682 77.9474 12.7841C78.2836 12.4953 78.5369 12.1023 78.7074 11.6051C78.8826 11.108 78.9702 10.5422 78.9702 9.90769C78.9702 9.27322 78.8826 8.7074 78.7074 8.21024C78.5369 7.71309 78.2836 7.32009 77.9474 7.03127C77.6113 6.74244 77.1922 6.59803 76.6903 6.59803C76.1837 6.59803 75.7576 6.74244 75.4119 7.03127C75.071 7.32009 74.813 7.71309 74.6378 8.21024C74.4673 8.7074 74.3821 9.27322 74.3821 9.90769C74.3821 10.5422 74.4673 11.108 74.6378 11.6051C74.813 12.1023 75.071 12.4953 75.4119 12.7841C75.7576 13.0682 76.1837 13.2102 76.6903 13.2102Z" fill="#364FC7"/>
<path d="M88.9276 19.6591C87.9474 19.6591 87.107 19.5242 86.4062 19.2543C85.7102 18.9891 85.1562 18.6269 84.7443 18.1676C84.3324 17.7084 84.0649 17.1923 83.9418 16.6193L86.7401 16.2429C86.8253 16.4607 86.9602 16.6643 87.1449 16.8537C87.3296 17.0431 87.5734 17.1946 87.8764 17.3083C88.1842 17.4266 88.5582 17.4858 88.9986 17.4858C89.6567 17.4858 90.1989 17.3248 90.625 17.0029C91.0559 16.6856 91.2713 16.153 91.2713 15.4048V13.4091H91.1435C91.0109 13.7121 90.812 13.9986 90.5469 14.2685C90.2817 14.5384 89.9408 14.7585 89.5241 14.929C89.1075 15.0994 88.6103 15.1847 88.0327 15.1847C87.2135 15.1847 86.4678 14.9953 85.7955 14.6165C85.1278 14.233 84.5952 13.6482 84.1974 12.8622C83.8045 12.0715 83.608 11.0725 83.608 9.86507C83.608 8.62928 83.8092 7.59708 84.2116 6.76848C84.6141 5.93988 85.1492 5.31962 85.8168 4.90769C86.4891 4.49576 87.2254 4.28979 88.0256 4.28979C88.6364 4.28979 89.1477 4.39396 89.5597 4.60229C89.9716 4.80589 90.303 5.06157 90.554 5.36934C90.8097 5.67237 91.0061 5.97066 91.1435 6.26422H91.2571V4.43183H94.2614V15.4475C94.2614 16.3755 94.0341 17.152 93.5795 17.777C93.125 18.402 92.4953 18.8708 91.6903 19.1833C90.8902 19.5005 89.9692 19.6591 88.9276 19.6591ZM88.9915 12.9119C89.4792 12.9119 89.8911 12.7912 90.2273 12.5497C90.5682 12.3035 90.8286 11.9531 91.0085 11.4986C91.1932 11.0393 91.2855 10.4901 91.2855 9.85087C91.2855 9.21166 91.1955 8.65769 91.0156 8.18894C90.8357 7.71545 90.5753 7.3485 90.2344 7.08809C89.8935 6.82767 89.4792 6.69746 88.9915 6.69746C88.4943 6.69746 88.0753 6.8324 87.7344 7.10229C87.3935 7.36744 87.1354 7.73676 86.9602 8.21024C86.785 8.68373 86.6974 9.2306 86.6974 9.85087C86.6974 10.4806 86.785 11.0251 86.9602 11.4844C87.1402 11.9389 87.3982 12.2917 87.7344 12.5426C88.0753 12.7888 88.4943 12.9119 88.9915 12.9119Z" fill="#364FC7"/>
</g>
</svg>
